<?xml version="1.0" encoding="utf-8"?>
<svg viewBox="0 0 500 500" xmlns="http://www.w3.org/2000/svg">
    <defs>
        <linearGradient id="golden-fizz">
            <stop style="stop-color: rgb(255, 238, 51)"/>
        </linearGradient>
        <linearGradient id="aa-elm">
            <stop style="stop-color: rgb(26, 123, 119)"/>
        </linearGradient>
        <linearGradient id="minsk">
            <stop style="stop-color: rgb(64, 56, 136)"/>
        </linearGradient>
    </defs>
    <circle style="fill: url(#golden-fizz);" cx="250" cy="250" r="250"/>
    <g transform="matrix(0.393127, -0.135365, 0.135365, 0.393127, 8.663107, 129.22789)">
        <g transform="translate(0.000000,511.000000) scale(0.100000,-0.100000)">
            <path d="M 1741.3 4995.7 C 1596 4958.8 1388.3 4834.2 1286.8 4725.8 C 1236.1 4670.4 1159.9 4555.1 1120.7 4469.8 C 1053.8 4329.1 1046.9 4294.5 1046.9 4093.8 C 1046.9 3886.2 1051.5 3865.4 1132.3 3699.3 C 1289.2 3383.3 1561.4 3203.3 1918.9 3180.3 L 2108.1 3168.8 L 2816.3 2460.6 L 3526.8 1754.7 L 4045.8 2273.7 L 4564.8 2792.7 L 3545.2 3814.6 C 2608.6 4751.2 2509.4 4843.5 2359.5 4917.3 C 2223.4 4986.5 2165.7 5000.3 2013.5 5007.3 C 1912 5014.2 1792 5007.2 1741.3 4995.7 Z" style="fill: url(#aa-elm);">
                <title>Handle</title>
            </path>
            <path d="M 3722.9 1420.1 L 2615.6 312.8 L 2343.4 38.3 L 2147.3 -155.5 L 1953.5 -349.3 L 2075.8 -543.1 C 2495.6 -1212.1 3213 -2091 3953.5 -2843 C 4717.1 -3620.4 5376.8 -4155.6 6200.4 -4670.1 L 6394.2 -4790.1 L 7545.3 -3639 C 8177.4 -3006.8 8738 -2437 8786.4 -2372.4 C 8906.4 -2220.1 8950.2 -2088.7 8952.5 -1894.9 C 8952.5 -1578.9 9047.1 -1687.3 6820.9 538.8 L 4830.2 2527.4 L 3722.9 1420.1 Z" style="fill: url(#minsk);">
                <title>Blade</title>
            </path>
            <path d="M 2343.4 38.3 C 2325.12 44.595 2590.019 321.609 2615.6 312.8 L 2659.4 239 C 2968.5 -289.3 3720.6 -1253.5 4389.5 -1975.6 C 4899.3 -2524.6 5635.2 -3177.5 6198.1 -3569.6 C 6301.9 -3643.4 6387.3 -3712.6 6387.3 -3721.9 C 6387.3 -3728.8 6331.9 -3793.4 6262.7 -3860.3 L 6138.1 -3984.9 L 5921.3 -3828 C 5342.3 -3403.5 4894.8 -3011.4 4331.9 -2441.6 C 3591.4 -1685 2903.9 -845.3 2477.2 -174 L 2343.4 38.3 Z" style="fill: url(#golden-fizz);" transform="matrix(0.999995, 0.000014, -0.000014, 0.999995, -0.00006, -0.000304)">
                <title>Notch</title>
            </path>
            <circle style="fill: url(#golden-fizz);" transform="matrix(0.945519, -0.325568, -0.325568, -0.945519, 7188.953897, -1212.330059)" cx="699" cy="246" r="312.666">
                <title>Blade-eye</title>
            </circle>
            <circle style="fill: url(#golden-fizz);" transform="matrix(0.945519, -0.325568, -0.325568, -0.945519, 1708.105594, 4418.303063)" cx="349" cy="225" r="312.666">
                <title>Handle-eye</title>
            </circle>
        </g>
    </g>
</svg>